<svg class="tc-logo" width="284px" height="50px" viewBox="0 0 284 50" version="1.1" xmlns="http://www.w3.org/2000/svg">
    <g id="Symbols" stroke="none" stroke-width="1" fill="red" fill-rule="evenodd">
        <g id="Logo-and-Claim-Red" class="svg-tc-logo">
            <path d="M2,0.876531416 L42.7909732,0.876531416 L42.7909732,9.79477768 L27.2924565,9.79477768 L27.2924565,49.1224211 L17.4241457,49.1224211 L17.4241457,9.79477768 L2,9.79477768 L2,0.876531416 Z M115.210192,33.1867909 C115.210192,38.2063159 113.640019,42.2642541 110.495483,45.3585106 C107.351995,48.452767 103.393568,49.9998953 98.617058,49.9998953 C93.7431327,49.9998953 89.7354735,48.4642893 86.5919855,45.3951724 C83.4484975,42.325008 81.8772772,38.2555475 81.8772772,33.1867909 L81.8772772,12.9379515 L91.745588,12.9379515 L91.745588,33.9912556 C91.745588,36.086216 92.3908358,37.7674217 93.6813314,39.0348727 C94.9749694,40.3023237 96.6184658,40.9350018 98.617058,40.9350018 C100.518235,40.9350018 102.113547,40.3023237 103.404042,39.0348727 C104.696633,37.7674217 105.341881,36.086216 105.341881,33.9912556 L105.341881,12.9379515 L115.210192,12.9379515 L115.210192,33.1867909 Z M143.200538,12.9383705 L143.200538,21.6366459 L140.569268,21.6366459 C137.597566,21.6366459 135.233404,22.4285409 133.479922,24.0133784 C131.724345,25.5971685 130.847604,27.947714 130.847604,31.06711 L130.847604,49.1225259 L120.979293,49.1225259 L120.979293,12.9383705 L130.043139,12.9383705 L130.043139,17.32417 C132.52881,14.1084058 135.843037,12.5005237 139.984774,12.5005237 C141.204041,12.5005237 142.275613,12.6461235 143.200538,12.9383705 Z M185.412837,3.18014983 C189.140819,5.29920224 192.075859,8.23633667 194.22005,11.9873632 L186.765134,17.2509511 C183.352444,11.8417635 178.748768,9.13716962 172.94887,9.13716962 C168.415376,9.13716962 164.687394,10.6224965 161.763877,13.5962928 C158.84036,16.567994 157.37703,20.3944391 157.37703,25.0724856 C157.37703,29.702348 158.84036,33.4910838 161.763877,36.4397406 C164.687394,39.3883973 168.415376,40.8622019 172.94887,40.8622019 C178.748768,40.8622019 183.352444,38.1576081 186.765134,32.7484204 L194.22005,38.0109608 C192.12509,41.7640823 189.201573,44.7001693 185.448451,46.8202692 C181.696377,48.940369 177.505409,49.9993715 172.875547,49.9993715 C165.662598,49.9993715 159.584071,47.5995944 154.636822,42.8000402 C149.69062,37.9994386 147.216472,32.0665108 147.216472,25.0002095 C147.216472,17.9328607 149.702143,11.999933 154.673484,7.20037877 C159.643777,2.3997771 165.735922,0 172.94887,0 C177.530549,0 181.68276,1.05900246 185.412837,3.18014983 Z M261.018595,12.9383705 L261.018595,21.6366459 L258.387325,21.6366459 C255.413528,21.6366459 253.051461,22.4285409 251.296931,24.0133784 C249.541355,25.5971685 248.664614,27.947714 248.664614,31.06711 L248.664614,49.1225259 L238.795255,49.1225259 L238.795255,12.9383705 L247.860149,12.9383705 L247.860149,17.32417 C250.345819,14.1084058 253.660047,12.5005237 257.801783,12.5005237 C259.020003,12.5005237 260.092622,12.6461235 261.018595,12.9383705 Z M285.742793,40.8623066 L285.742793,49.1227353 C283.40377,49.7072293 281.137023,49.9994763 278.943599,49.9994763 C274.362969,49.9994763 270.804678,48.8671502 268.270824,46.6004031 C265.735922,44.3347034 264.469518,40.9345828 264.469518,36.404231 L264.469518,21.2723323 L264.469518,12.93858 L264.469518,3.80141033 L274.337829,3.80141033 L274.337829,12.93858 L284.57171,12.93858 L284.57171,21.2723323 L274.337829,21.2723323 L274.337829,35.5253951 C274.337829,37.5732189 274.875186,39.0229314 275.946759,39.8755803 C277.018331,40.7282292 278.724676,41.1545536 281.063699,41.1545536 C281.648193,41.1545536 283.206844,41.0571379 285.742793,40.8623066 Z M49.8653401,23.9390073 C48.1118583,25.8160918 47.2340699,28.1917769 47.2340699,31.06711 C47.2340699,33.9424431 48.1118583,36.2929886 49.8653401,38.121889 C51.6198694,39.9486944 53.861477,40.8620971 56.5912104,40.8620971 C59.2717122,40.8620971 61.4997025,39.9361247 63.2793713,38.0852272 C65.0579927,36.2322347 65.9483508,33.8932115 65.9483508,31.06711 C65.9483508,28.2399609 65.0579927,25.8768457 63.2793713,23.9756691 C61.4997025,22.0755401 59.2717122,21.1254756 56.5912104,21.1254756 C53.861477,21.1254756 51.6198694,22.0640178 49.8653401,23.9390073 M70.3341504,17.5797551 C74.1354559,21.2113689 76.035585,25.6830618 76.035585,30.9937863 C76.035585,36.3066058 74.1354559,40.7887735 70.3341504,44.4444794 C66.5317973,48.1001852 61.9281219,49.9269906 56.5189343,49.9269906 C51.1086991,49.9269906 46.540638,48.1117075 42.8126561,44.4811412 C39.0846741,40.8495274 37.2191119,36.3547899 37.2191119,30.9937863 C37.2191119,25.6830618 39.0961964,21.2113689 42.8482704,17.5797551 C46.6013919,13.9491888 51.1820227,12.1339057 56.5912104,12.1339057 C61.9511665,12.1339057 66.5317973,13.9491888 70.3341504,17.5797551 M210.440805,22.0752258 C208.881107,23.3919084 207.808487,25.1705298 207.225041,27.4121374 L223.744851,27.4121374 C223.694572,25.1705298 222.916294,23.3919084 221.405827,22.0752258 C219.894313,20.7606382 218.066461,20.1017732 215.922269,20.1017732 C213.827308,20.1017732 211.999455,20.7606382 210.440805,22.0752258 M232.663097,34.356931 L207.225041,34.356931 C207.856671,36.6467226 209.064416,38.4138217 210.84199,39.6571807 C212.620611,40.8994922 214.826604,41.5206479 217.457875,41.5206479 C221.016165,41.5206479 224.377529,40.3024285 227.545109,37.8649421 L231.638661,44.5908123 C227.351325,48.1962391 222.526631,50 217.165628,50 C211.463145,50 206.736915,48.1847168 202.984841,44.5531031 C199.232767,40.9235842 197.355682,36.4277993 197.355682,31.0667957 C197.355682,25.7550237 199.170966,21.2718085 202.801532,17.6171502 C206.432098,13.9603969 210.928931,12.1335914 216.288887,12.1335914 C221.307364,12.1335914 225.401964,13.742521 228.569544,16.9582851 C231.737124,20.1761443 233.320914,24.1712337 233.320914,28.9466958 C233.320914,30.7012251 233.101991,32.504986 232.663097,34.356931" id="TourCert-Logo-Red"></path>
        </g>
    </g>
</svg>